<?xml version="1.0" encoding="UTF-8" standalone="no"?>
<!-- Created with Inkscape (http://www.inkscape.org/) -->

<svg
   xmlns:dc="http://purl.org/dc/elements/1.1/"
   xmlns:cc="http://creativecommons.org/ns#"
   xmlns:rdf="http://www.w3.org/1999/02/22-rdf-syntax-ns#"
   xmlns:svg="http://www.w3.org/2000/svg"
   xmlns="http://www.w3.org/2000/svg"
   xmlns:sodipodi="http://sodipodi.sourceforge.net/DTD/sodipodi-0.dtd"
   xmlns:inkscape="http://www.inkscape.org/namespaces/inkscape"
   width="76.070457"
   height="67.798523"
   viewBox="0 0 20.126976 17.938358"
   version="1.1"
   id="svg8277"
   inkscape:version="0.92.5 (2060ec1f9f, 2020-04-08)"
   sodipodi:docname="user.svg"
   inkscape:export-filename="/home/tim/04-SOURCES/artwork-uoe/user-75.png"
   inkscape:export-xdpi="94.869331"
   inkscape:export-ydpi="94.869331">
  <defs
     id="defs8271">
    <clipPath
       clipPathUnits="userSpaceOnUse"
       id="clipPath5514">
      <g
         id="g5518"
         transform="matrix(0.04193042,0,0,-0.04193042,110.85021,484.16268)"
         style="fill:#000000;stroke:none">
        <path
           id="path5516"
           d="M 5730,11550 C 4629,11464 3824,10884 3323,9815 3032,9194 2859,8502 2725,7420 2647,6783 2629,6680 2574,6543 2366,6023 1725,5734 705,5701 l -210,-6 147,-72 c 779,-380 1355,-409 1827,-90 40,27 71,44 67,38 -13,-21 -207,-143 -297,-188 -278,-136 -597,-190 -976,-165 -102,7 -188,11 -190,8 -11,-11 65,-235 116,-341 180,-374 440,-540 904,-576 73,-6 177,-7 231,-3 l 99,6 -7,-41 c -16,-104 -72,-201 -142,-248 -74,-51 -105,-56 -341,-61 -123,-2 -223,-7 -223,-11 0,-14 203,-222 278,-285 171,-142 388,-265 717,-405 77,-33 133,-62 125,-65 -8,-3 -314,-86 -680,-185 C 1533,2843 1477,2826 1374,2775 919,2549 601,2185 360,1612 299,1467 266,1376 150,1040 102,900 49,749 31,705 14,661 0,616 0,605 0,582 290,322 422,228 468,195 566,138 640,102 L 775,35 3347,30 c 1415,-3 3939,-3 5610,0 2893,5 3040,6 3088,23 141,51 267,128 490,297 77,58 168,125 203,149 44,29 62,48 62,63 0,47 -457,1001 -596,1245 -87,152 -234,375 -320,483 -93,118 -303,323 -401,393 -89,63 -255,153 -343,186 -30,11 -446,118 -925,236 -478,119 -878,218 -888,221 -15,5 0,25 80,107 828,855 1037,2339 627,4452 -125,646 -269,1109 -484,1561 -308,647 -737,1158 -1267,1507 -453,299 -899,462 -1539,562 -215,34 -777,53 -1014,35 z"
           inkscape:connector-curvature="0" />
      </g>
    </clipPath>
  </defs>
  <sodipodi:namedview
     id="base"
     pagecolor="#ffffff"
     bordercolor="#666666"
     borderopacity="1.0"
     inkscape:pageopacity="0"
     inkscape:pageshadow="2"
     inkscape:zoom="5.6"
     inkscape:cx="61.161035"
     inkscape:cy="51.739832"
     inkscape:document-units="mm"
     inkscape:current-layer="layer1"
     showgrid="false"
     fit-margin-top="0"
     fit-margin-left="0"
     fit-margin-right="0"
     fit-margin-bottom="0"
     inkscape:window-width="1848"
     inkscape:window-height="1136"
     inkscape:window-x="72"
     inkscape:window-y="27"
     inkscape:window-maximized="1"
     inkscape:snap-global="false"
     units="px" />
  <metadata
     id="metadata8274">
    <rdf:RDF>
      <cc:Work
         rdf:about="">
        <dc:format>image/svg+xml</dc:format>
        <dc:type
           rdf:resource="http://purl.org/dc/dcmitype/StillImage" />
        <dc:title></dc:title>
      </cc:Work>
    </rdf:RDF>
  </metadata>
  <g
     inkscape:label="Layer 1"
     inkscape:groupmode="layer"
     id="layer1"
     transform="translate(150.43604,-89.556056)">
    <g
       style="fill:#ffffff;stroke:none;stroke-width:26.80729103"
       transform="matrix(0.00157242,0,0,-0.00155591,-150.43604,107.53759)"
       id="g8915">
      <path
         inkscape:connector-curvature="0"
         d="M 5730,11550 C 4629,11464 3824,10884 3323,9815 3032,9194 2859,8502 2725,7420 c -78,-637 -35.9053,-481.8876 -90.9053,-618.8876 -208,-520 -818.9527,-900.0985 -1838.95271,-933.0985 l -225.02366,9.1831 C 381.36549,5849.1958 1171.5881,5357.252 1027.929,5484.1124 1016.929,5473.1124 1138,4991 1189,4885 c 434.1765,-690.2184 484.2922,-488.8019 668.8817,-604.1552 -123,-2 -313.1421,-37.3662 -313.1421,-41.3662 0,-14 368.2604,-510.4786 443.2604,-573.4786 171,-142 192.6923,-173.9015 521.6923,-313.9015 77,-33 -62.3076,13.9154 -70.3076,10.9154 -8,-3 31.5443,20.2816 -334.4557,-78.7184 -617,-168 -642.9527,-276.0985 -745.9527,-327.0985 C 903.97633,2731.197 601,2185 360,1612 299,1467 266,1376 150,1040 102,900 49,749 31,705 14,661 0,616 0,605 0,582 290,322 422,228 468,195 566,138 640,102 L 775,35 3347,30 c 1415,-3 3939,-3 5610,0 2893,5 3040,6 3088,23 141,51 267,128 490,297 77,58 168,125 203,149 44,29 62,48 62,63 0,47 -381.882,1076.9154 -520.882,1320.9154 -87,152 -218.976,390.1831 -304.976,498.1831 -93,118 -227.882,353.3662 -325.882,423.3662 -89,63 -179.881,183.3661 -267.881,216.3661 -30,11 -430.977,239.4647 -909.977,357.4647 -477.9997,119 -832.9287,233.183 -842.9287,236.183 -15,5 0,40.1832 80,122.1832 C 10413.747,4550.6558 10443.944,5771.9813 10034,7885 c -125,646 -269,1109 -484,1561 -308,647 -737,1158 -1267,1507 -453,299 -899,462 -1539,562 -215,34 -777,53 -1014,35 z"
         id="path8913"
         style="fill:#ffffff;stroke-width:26.80729103"
         sodipodi:nodetypes="cccccccccsccscccccsccccccccscccccccccccc" />
    </g>
    <g
       id="g5512"
       transform="matrix(0.03571492,0,0,0.03610865,-153.88429,89.792637)"
       clip-path="url(#clipPath5514)"
       style="stroke-width:0.99453312">
      <path
         id="path5480"
         d="M 0,0 H 777 V 480 H 0 Z"
         inkscape:connector-curvature="0"
         style="fill:#750787;stroke-width:0.99453312" />
      <path
         id="path5482"
         d="M 0,0 H 777 V 420 H 0 Z"
         inkscape:connector-curvature="0"
         style="fill:#004dff;stroke-width:0.99453312" />
      <path
         id="path5484"
         d="M 0,0 H 777 V 360 H 0 Z"
         inkscape:connector-curvature="0"
         style="fill:#008026;stroke-width:0.99453312" />
      <path
         id="path5486"
         d="M 0,0 H 777 V 300 H 0 Z"
         inkscape:connector-curvature="0"
         style="fill:#ffed00;stroke-width:0.99453312" />
      <path
         id="path5488"
         d="M 0,0 H 777 V 240 H 0 Z"
         inkscape:connector-curvature="0"
         style="fill:#ff8c00;stroke-width:0.99453312" />
      <path
         id="path5490"
         d="M 0,0 H 777 V 180 H 0 Z"
         inkscape:connector-curvature="0"
         style="fill:#e40303;stroke-width:0.99453312" />
      <path
         id="path5492"
         d="M 0,0 H 777 V 120 H 0 Z"
         inkscape:connector-curvature="0"
         style="fill:#784f17;stroke-width:0.99453312" />
      <path
         id="path5494"
         d="M 0,0 H 777 V 60 H 0 Z"
         inkscape:connector-curvature="0"
         style="stroke-width:0.99453312" />
    </g>
  </g>
</svg>
